# xmcd CD database file
#
# Track frame offsets:
#	150
#	12595
#	30780
#	47651
#	67094
#	88246
#	101115
#	116007
#	128007
#	143317
#	160314
#
# Disc length: 2395 seconds
#
# Revision: 0
# Processed by: cddbd v1.5.2PL0 Copyright (c) Steve Scherf et al.
# Submitted via: CDex 1.70beta2
#
DISCID=8d09590b
DTITLE=Francis, Eddie - Cdn. - OVM - Road to Nashville
DYEAR=1900
DGENRE=Country
TTITLE0=Road to Nashville
TTITLE1=Dear Uncle Sam
TTITLE2=Honkyh Tonkin' Hat
TTITLE3=Not Intewrested In Julia
TTITLE4=Thank God For america
TTITLE5=Buicks Never Die
TTITLE6=My Friend Mr Brooks
TTITLE7=Yankee Doodle Dandy
TTITLE8=This Night(Our Wedding Song)
TTITLE9=You Got Me(Right Where I Want You)
TTITLE10=If She Calls
EXTD=
EXTT0=
EXTT1=
EXTT2=
EXTT3=
EXTT4=
EXTT5=
EXTT6=
EXTT7=
EXTT8=
EXTT9=
EXTT10=
PLAYORDER=
